<svg width="84" height="84" viewBox="0 0 84 84" fill="none" xmlns="http://www.w3.org/2000/svg">
<g filter="url(#filter0_d_120_54)">
<rect x="11" y="11" width="62" height="62" rx="31" fill="#070707"/>
<rect x="11.5" y="11.5" width="61" height="61" rx="30.5" stroke="#BEBEBE" stroke-opacity="0.15"/>
</g>
<g filter="url(#filter1_i_120_54)">
<path d="M48.6173 47.0182C46.6813 46.8914 45.1592 45.2898 45.1592 43.3321C45.1592 43.2667 45.1605 43.2014 45.1643 43.1361V43.145C45.1605 43.0835 45.1579 43.0118 45.1579 42.9387C45.1579 40.9848 46.6826 39.3884 48.6071 39.2718H48.6173C50.5507 39.3769 52.078 40.9695 52.078 42.9195C52.078 42.999 52.0754 43.0771 52.0703 43.1553V43.145C52.0741 43.2091 52.0767 43.2847 52.0767 43.3603C52.0767 45.3116 50.5507 46.9068 48.6263 47.017H48.616L48.6173 47.0182ZM35.8484 47.0182C33.9124 46.8914 32.3903 45.2898 32.3903 43.3321C32.3903 43.2667 32.3916 43.2014 32.3954 43.1361V43.145C32.3916 43.0835 32.389 43.0118 32.389 42.9387C32.389 40.9848 33.9137 39.3884 35.8381 39.2718H35.8484C37.7818 39.3769 39.309 40.9695 39.309 42.9195C39.309 42.999 39.3065 43.0771 39.3013 43.1553V43.145C39.3052 43.2065 39.3077 43.2783 39.3077 43.3513C39.3077 45.3052 37.7831 46.9017 35.8586 47.0182H35.8484ZM55.5373 29.4677C53.2785 28.4017 50.6545 27.5586 47.9075 27.0705L47.7166 27.0423C47.7102 27.041 47.7025 27.0397 47.6948 27.0397C47.65 27.0397 47.6115 27.0641 47.591 27.0999C47.2912 27.6265 46.9658 28.2838 46.6724 28.9577L46.6173 29.1C45.2976 28.8886 43.7755 28.7681 42.2252 28.7681C40.6748 28.7681 39.1527 28.8886 37.6677 29.1205L37.833 29.0987C37.4871 28.2915 37.1565 27.6355 36.7914 27L36.8439 27.0987C36.8221 27.0615 36.7824 27.0384 36.7376 27.0384C36.7312 27.0384 36.7235 27.0384 36.7171 27.0397C33.7792 27.5561 31.1552 28.3978 28.7028 29.5471L28.8963 29.4651C28.8745 29.4741 28.8566 29.4895 28.8451 29.5087C25.1884 34.6862 23 41.1283 23 48.0817C23 49.2438 23.0615 50.3905 23.1807 51.5206L23.1691 51.3796C23.173 51.4168 23.1922 51.4475 23.2191 51.4693C25.961 53.5206 29.1487 55.1734 32.5889 56.2586L32.8144 56.3201C32.8246 56.324 32.8374 56.3252 32.8502 56.3252C32.8912 56.3252 32.9271 56.306 32.9489 56.2766C33.6344 55.3541 34.2865 54.3086 34.8516 53.2118L34.9118 53.0837C34.9195 53.0683 34.9246 53.0491 34.9246 53.0286C34.9246 52.9761 34.8913 52.9325 34.8452 52.9146H34.8439C33.6754 52.4636 32.6875 51.9831 31.7471 51.4322L31.8457 51.486C31.8086 51.4642 31.7842 51.4245 31.7842 51.3796C31.7842 51.3399 31.8035 51.304 31.8329 51.2822C32.0341 51.1311 32.2365 50.9747 32.4287 50.8159C32.4492 50.7992 32.4761 50.789 32.5043 50.789C32.5223 50.789 32.5389 50.7928 32.553 50.7992H32.5517C35.3807 52.1586 38.7017 52.953 42.2072 52.953C45.7127 52.953 49.035 52.1586 51.9998 50.7403L51.8627 50.7992C51.8781 50.7915 51.8948 50.7877 51.914 50.7877C51.9422 50.7877 51.9691 50.7979 51.9896 50.8146C52.1818 50.9735 52.3829 51.1323 52.5866 51.2822C52.6161 51.3053 52.6353 51.3412 52.6353 51.3809C52.6353 51.4257 52.611 51.4642 52.5764 51.486C51.7295 51.9921 50.7416 52.4712 49.7128 52.8672L49.5783 52.9133C49.5321 52.9312 49.4988 52.9761 49.4988 53.0273C49.4988 53.0478 49.5039 53.067 49.5129 53.0837C50.1548 54.3137 50.8057 55.3566 51.5257 56.347L51.4745 56.274C51.4963 56.3047 51.5334 56.3252 51.5732 56.3252C51.586 56.3252 51.5988 56.3227 51.6103 56.3201C55.2811 55.1772 58.474 53.5244 61.303 51.4104L61.2197 51.4706C61.2479 51.4501 61.2658 51.4181 61.2697 51.3822C61.3811 50.3777 61.4439 49.2117 61.4439 48.0317C61.4439 41.0937 59.2504 34.6683 55.5207 29.41L55.5873 29.51C55.5771 29.4895 55.5591 29.4728 55.5386 29.4638L55.5373 29.4677Z" fill="#DFDFDF"/>
</g>
<path d="M36.7373 26.9385C36.7766 26.9385 36.8139 26.9495 36.8467 26.9678L36.8779 26.9502C37.2339 27.5697 37.5556 28.2092 37.8916 28.9863C39.3058 28.7774 40.7532 28.668 42.2256 28.668C43.7493 28.668 45.2463 28.7839 46.5527 28.9883L46.5791 28.9219L46.5811 28.918C46.8756 28.2415 47.2021 27.5809 47.5039 27.0508C47.5413 26.9853 47.6122 26.9396 47.6943 26.9395L47.7305 26.9443L47.7314 26.9434L47.9219 26.9717H47.9248C50.6388 27.454 53.2337 28.2819 55.4775 29.3291L55.4785 29.3281L55.5752 29.3701L55.6025 29.3525C59.3436 34.6269 61.5438 41.0722 61.5439 48.0312C61.5439 49.2146 61.4811 50.385 61.3691 51.3936C61.3663 51.4196 61.3579 51.4444 61.3467 51.4678L61.3633 51.4902C58.5251 53.6112 55.3212 55.2698 51.6396 56.416L51.6318 56.418C51.6199 56.4206 51.5978 56.4248 51.5732 56.4248C51.5329 56.4248 51.4949 56.413 51.4619 56.3936L51.4453 56.4062C50.7223 55.4118 50.068 54.3641 49.4238 53.1299V53.1289C49.4079 53.0984 49.3984 53.0638 49.3984 53.0273C49.3984 52.9321 49.4601 52.8522 49.542 52.8203L49.5459 52.8184L49.6768 52.7734C50.6996 52.3798 51.6814 51.9038 52.5225 51.4014C52.5308 51.3961 52.5352 51.3881 52.5352 51.3809C52.5351 51.3741 52.532 51.3667 52.5254 51.3613V51.3604C52.321 51.2099 52.119 51.0515 51.9268 50.8926L51.916 50.8877C48.97 52.2749 45.6783 53.0527 42.207 53.0527C38.6872 53.0527 35.352 52.2552 32.5098 50.8896C32.5085 50.8893 32.5062 50.8887 32.5039 50.8887C32.4998 50.8888 32.4955 50.891 32.4922 50.8936L32.4912 50.8926C32.3944 50.9726 32.2956 51.0526 32.1953 51.1309L31.8926 51.3623C31.8881 51.3656 31.8838 51.3725 31.8838 51.3799C31.8839 51.3875 31.8886 51.3948 31.8965 51.3994L31.8945 51.4014C32.7966 51.9234 33.7462 52.3827 34.8623 52.8145H34.8643L34.8818 52.8213C34.9629 52.853 35.0243 52.9315 35.0244 53.0283C35.0244 53.0639 35.0145 53.0969 35.001 53.125L35.002 53.126L34.9424 53.2539L34.9404 53.2578C34.4439 54.2216 33.8807 55.1463 33.2861 55.9834L33.0293 56.3359C32.9888 56.3908 32.9232 56.4247 32.8506 56.4248C32.835 56.4248 32.812 56.4225 32.7881 56.415V56.417L32.5625 56.3555L32.5586 56.3545V56.3535C29.1079 55.2649 25.9099 53.6077 23.1592 51.5498L23.1348 51.5254L23.0811 51.5312C22.9615 50.3978 22.9004 49.2475 22.9004 48.082C22.9004 41.1489 25.07 34.7221 28.6992 29.5439L28.6602 29.457C28.6623 29.456 28.6649 29.4551 28.667 29.4541L28.6729 29.4512C31.129 28.3014 33.7568 27.4594 36.6973 26.9424C36.7149 26.9389 36.7329 26.9385 36.7373 26.9385ZM35.8428 39.3721C33.9715 39.4862 32.4894 41.0384 32.4893 42.9385C32.4893 43.0081 32.4915 43.0769 32.4951 43.1357V43.1455C32.4916 43.2071 32.4902 43.2692 32.4902 43.332C32.4902 45.2345 33.9677 46.7915 35.8486 46.918H35.8525C37.7245 46.8046 39.2079 45.2521 39.208 43.3516L39.2012 43.1514V43.1455C39.206 43.0707 39.209 42.996 39.209 42.9199C39.209 41.0234 37.7236 39.4743 35.8428 39.3721ZM48.6123 39.3721C46.7408 39.4859 45.258 41.0382 45.2578 42.9385C45.2578 43.0077 45.2591 43.0761 45.2627 43.1348L45.2646 43.1357V43.1455C45.2611 43.2071 45.2588 43.2692 45.2588 43.332C45.2588 45.2297 46.7293 46.7837 48.6035 46.917H48.6201C50.4919 46.8098 51.9765 45.2583 51.9766 43.3604L51.9707 43.1514V43.1455C51.9755 43.0707 51.9775 42.996 51.9775 42.9199C51.9775 41.0236 50.4929 39.4745 48.6123 39.3721Z" stroke="#939393" stroke-width="0.2"/>
<defs>
<filter id="filter0_d_120_54" x="0" y="0" width="84" height="84" filterUnits="userSpaceOnUse" color-interpolation-filters="sRGB">
<feFlood flood-opacity="0" result="BackgroundImageFix"/>
<feColorMatrix in="SourceAlpha" type="matrix" values="0 0 0 0 0 0 0 0 0 0 0 0 0 0 0 0 0 0 127 0" result="hardAlpha"/>
<feOffset/>
<feGaussianBlur stdDeviation="5.5"/>
<feComposite in2="hardAlpha" operator="out"/>
<feColorMatrix type="matrix" values="0 0 0 0 1 0 0 0 0 1 0 0 0 0 1 0 0 0 0.15 0"/>
<feBlend mode="normal" in2="BackgroundImageFix" result="effect1_dropShadow_120_54"/>
<feBlend mode="normal" in="SourceGraphic" in2="effect1_dropShadow_120_54" result="shape"/>
</filter>
<filter id="filter1_i_120_54" x="22.8008" y="26.8389" width="38.8438" height="29.6865" filterUnits="userSpaceOnUse" color-interpolation-filters="sRGB">
<feFlood flood-opacity="0" result="BackgroundImageFix"/>
<feBlend mode="normal" in="SourceGraphic" in2="BackgroundImageFix" result="shape"/>
<feColorMatrix in="SourceAlpha" type="matrix" values="0 0 0 0 0 0 0 0 0 0 0 0 0 0 0 0 0 0 127 0" result="hardAlpha"/>
<feOffset/>
<feGaussianBlur stdDeviation="2.5"/>
<feComposite in2="hardAlpha" operator="arithmetic" k2="-1" k3="1"/>
<feColorMatrix type="matrix" values="0 0 0 0 0 0 0 0 0 0 0 0 0 0 0 0 0 0 0.64 0"/>
<feBlend mode="normal" in2="shape" result="effect1_innerShadow_120_54"/>
</filter>
</defs>
</svg>
