<svg width="84" height="84" viewBox="0 0 84 84" fill="none" xmlns="http://www.w3.org/2000/svg">
<g filter="url(#filter0_d_120_55)">
<rect x="11" y="11" width="62" height="62" rx="31" fill="#070707"/>
<rect x="11.5" y="11.5" width="61" height="61" rx="30.5" stroke="#BEBEBE" stroke-opacity="0.15"/>
</g>
<g opacity="0.5" filter="url(#filter1_i_120_55)">
<path fill-rule="evenodd" clip-rule="evenodd" d="M46.75 58.75H40.25C34.1217 58.75 31.0576 58.75 29.1538 56.8461C27.25 54.9425 27.25 51.8782 27.25 45.75V39.25C27.25 33.1217 27.25 30.0576 29.1538 28.1538C31.0576 26.25 34.1379 26.25 40.2984 26.25C41.2832 26.25 42.0723 26.25 42.7362 26.2771C42.7145 26.407 42.7029 26.5395 42.7024 26.6734L42.6875 31.2793C42.6873 33.0621 42.6872 34.6377 42.858 35.9076C43.043 37.2842 43.468 38.6605 44.5913 39.7838C45.7145 40.9072 47.0909 41.3321 48.4675 41.5172C49.7376 41.688 51.313 41.6878 53.0958 41.6877H53.25H59.6808C59.75 42.5559 59.75 43.6214 59.75 45.0397V45.75C59.75 51.8782 59.75 54.9425 57.8461 56.8461C55.9425 58.75 52.8782 58.75 46.75 58.75Z" fill="white"/>
</g>
<g filter="url(#filter2_i_120_55)">
<path d="M33.75 45.3438C33.0769 45.3438 32.5312 45.8894 32.5312 46.5625C32.5312 47.2356 33.0769 47.7812 33.75 47.7812H46.75C47.4231 47.7812 47.9688 47.2356 47.9688 46.5625C47.9688 45.8894 47.4231 45.3438 46.75 45.3438H33.75Z" fill="white"/>
</g>
<g filter="url(#filter3_i_120_55)">
<path d="M33.75 51.0312C33.0769 51.0312 32.5312 51.5769 32.5312 52.25C32.5312 52.9231 33.0769 53.4688 33.75 53.4688H42.6875C43.3606 53.4688 43.9062 52.9231 43.9062 52.25C43.9062 51.5769 43.3606 51.0312 42.6875 51.0312H33.75Z" fill="white"/>
</g>
<g filter="url(#filter4_i_120_55)">
<path d="M42.7025 26.6729L42.6875 31.2788C42.6873 33.0616 42.6872 34.6371 42.858 35.9071C43.0431 37.2837 43.468 38.66 44.5914 39.7834C45.7147 40.9066 47.0909 41.3315 48.4676 41.5166C49.7376 41.6874 51.313 41.6873 53.0958 41.6871H59.6808C59.7009 41.9399 59.7152 42.2094 59.7253 42.4994H59.75C59.75 42.0647 59.75 41.8475 59.7339 41.5915C59.6419 40.138 59.0378 38.4723 58.1762 37.2979C58.0246 37.0911 57.9207 36.967 57.7134 36.7188C56.4256 35.1773 54.7304 33.2571 53.25 31.937C51.9325 30.762 50.1279 29.4765 48.5539 28.4253C47.2019 27.5222 46.5258 27.0707 45.5987 26.735C45.353 26.6461 45.0288 26.5478 44.775 26.4853C44.151 26.3317 43.5436 26.2783 42.6875 26.2598L42.7025 26.6729Z" fill="white"/>
</g>
<defs>
<filter id="filter0_d_120_55" x="0" y="0" width="84" height="84" filterUnits="userSpaceOnUse" color-interpolation-filters="sRGB">
<feFlood flood-opacity="0" result="BackgroundImageFix"/>
<feColorMatrix in="SourceAlpha" type="matrix" values="0 0 0 0 0 0 0 0 0 0 0 0 0 0 0 0 0 0 127 0" result="hardAlpha"/>
<feOffset/>
<feGaussianBlur stdDeviation="5.5"/>
<feComposite in2="hardAlpha" operator="out"/>
<feColorMatrix type="matrix" values="0 0 0 0 1 0 0 0 0 1 0 0 0 0 1 0 0 0 0.15 0"/>
<feBlend mode="normal" in2="BackgroundImageFix" result="effect1_dropShadow_120_55"/>
<feBlend mode="normal" in="SourceGraphic" in2="effect1_dropShadow_120_55" result="shape"/>
</filter>
<filter id="filter1_i_120_55" x="27.25" y="26.25" width="32.5" height="32.5" filterUnits="userSpaceOnUse" color-interpolation-filters="sRGB">
<feFlood flood-opacity="0" result="BackgroundImageFix"/>
<feBlend mode="normal" in="SourceGraphic" in2="BackgroundImageFix" result="shape"/>
<feColorMatrix in="SourceAlpha" type="matrix" values="0 0 0 0 0 0 0 0 0 0 0 0 0 0 0 0 0 0 127 0" result="hardAlpha"/>
<feOffset/>
<feGaussianBlur stdDeviation="5.5"/>
<feComposite in2="hardAlpha" operator="arithmetic" k2="-1" k3="1"/>
<feColorMatrix type="matrix" values="0 0 0 0 0 0 0 0 0 0 0 0 0 0 0 0 0 0 0.66 0"/>
<feBlend mode="normal" in2="shape" result="effect1_innerShadow_120_55"/>
</filter>
<filter id="filter2_i_120_55" x="32.5312" y="45.3438" width="15.4375" height="2.4375" filterUnits="userSpaceOnUse" color-interpolation-filters="sRGB">
<feFlood flood-opacity="0" result="BackgroundImageFix"/>
<feBlend mode="normal" in="SourceGraphic" in2="BackgroundImageFix" result="shape"/>
<feColorMatrix in="SourceAlpha" type="matrix" values="0 0 0 0 0 0 0 0 0 0 0 0 0 0 0 0 0 0 127 0" result="hardAlpha"/>
<feOffset/>
<feGaussianBlur stdDeviation="1"/>
<feComposite in2="hardAlpha" operator="arithmetic" k2="-1" k3="1"/>
<feColorMatrix type="matrix" values="0 0 0 0 0 0 0 0 0 0 0 0 0 0 0 0 0 0 0.6 0"/>
<feBlend mode="normal" in2="shape" result="effect1_innerShadow_120_55"/>
</filter>
<filter id="filter3_i_120_55" x="32.5312" y="51.0312" width="11.375" height="2.4375" filterUnits="userSpaceOnUse" color-interpolation-filters="sRGB">
<feFlood flood-opacity="0" result="BackgroundImageFix"/>
<feBlend mode="normal" in="SourceGraphic" in2="BackgroundImageFix" result="shape"/>
<feColorMatrix in="SourceAlpha" type="matrix" values="0 0 0 0 0 0 0 0 0 0 0 0 0 0 0 0 0 0 127 0" result="hardAlpha"/>
<feOffset/>
<feGaussianBlur stdDeviation="1"/>
<feComposite in2="hardAlpha" operator="arithmetic" k2="-1" k3="1"/>
<feColorMatrix type="matrix" values="0 0 0 0 0 0 0 0 0 0 0 0 0 0 0 0 0 0 0.6 0"/>
<feBlend mode="normal" in2="shape" result="effect1_innerShadow_120_55"/>
</filter>
<filter id="filter4_i_120_55" x="42.6875" y="26.2598" width="17.0625" height="16.2393" filterUnits="userSpaceOnUse" color-interpolation-filters="sRGB">
<feFlood flood-opacity="0" result="BackgroundImageFix"/>
<feBlend mode="normal" in="SourceGraphic" in2="BackgroundImageFix" result="shape"/>
<feColorMatrix in="SourceAlpha" type="matrix" values="0 0 0 0 0 0 0 0 0 0 0 0 0 0 0 0 0 0 127 0" result="hardAlpha"/>
<feOffset/>
<feGaussianBlur stdDeviation="5.5"/>
<feComposite in2="hardAlpha" operator="arithmetic" k2="-1" k3="1"/>
<feColorMatrix type="matrix" values="0 0 0 0 0 0 0 0 0 0 0 0 0 0 0 0 0 0 0.66 0"/>
<feBlend mode="normal" in2="shape" result="effect1_innerShadow_120_55"/>
</filter>
</defs>
</svg>
