<svg width="84" height="84" viewBox="0 0 84 84" fill="none" xmlns="http://www.w3.org/2000/svg">
<g filter="url(#filter0_d_120_53)">
<rect x="11" y="11" width="62" height="62" rx="31" fill="#070707"/>
<rect x="11.5" y="11.5" width="61" height="61" rx="30.5" stroke="#BEBEBE" stroke-opacity="0.15"/>
</g>
<g clip-path="url(#clip0_120_53)">
<g filter="url(#filter1_i_120_53)">
<path d="M55.8762 31.2114L50.9124 54.6552C50.5687 56.3189 49.5649 56.7177 48.1624 55.9477L40.5999 50.3514L36.9424 53.8852C36.5299 54.2977 36.1862 54.6552 35.4299 54.6552C34.4399 54.6552 34.6049 54.2839 34.2749 53.3489L31.6624 44.8377L24.1687 42.5002C22.5462 42.0189 22.5324 40.9052 24.5262 40.0939L53.7587 28.8189C55.0924 28.2277 56.3712 29.1489 55.8624 31.1977L55.8762 31.2114Z" fill="#D7D7D7"/>
</g>
</g>
<defs>
<filter id="filter0_d_120_53" x="0" y="0" width="84" height="84" filterUnits="userSpaceOnUse" color-interpolation-filters="sRGB">
<feFlood flood-opacity="0" result="BackgroundImageFix"/>
<feColorMatrix in="SourceAlpha" type="matrix" values="0 0 0 0 0 0 0 0 0 0 0 0 0 0 0 0 0 0 127 0" result="hardAlpha"/>
<feOffset/>
<feGaussianBlur stdDeviation="5.5"/>
<feComposite in2="hardAlpha" operator="out"/>
<feColorMatrix type="matrix" values="0 0 0 0 1 0 0 0 0 1 0 0 0 0 1 0 0 0 0.15 0"/>
<feBlend mode="normal" in2="BackgroundImageFix" result="effect1_dropShadow_120_53"/>
<feBlend mode="normal" in="SourceGraphic" in2="effect1_dropShadow_120_53" result="shape"/>
</filter>
<filter id="filter1_i_120_53" x="22.9883" y="28.6426" width="32.9883" height="27.6826" filterUnits="userSpaceOnUse" color-interpolation-filters="sRGB">
<feFlood flood-opacity="0" result="BackgroundImageFix"/>
<feBlend mode="normal" in="SourceGraphic" in2="BackgroundImageFix" result="shape"/>
<feColorMatrix in="SourceAlpha" type="matrix" values="0 0 0 0 0 0 0 0 0 0 0 0 0 0 0 0 0 0 127 0" result="hardAlpha"/>
<feOffset/>
<feGaussianBlur stdDeviation="3"/>
<feComposite in2="hardAlpha" operator="arithmetic" k2="-1" k3="1"/>
<feColorMatrix type="matrix" values="0 0 0 0 0 0 0 0 0 0 0 0 0 0 0 0 0 0 1 0"/>
<feBlend mode="normal" in2="shape" result="effect1_innerShadow_120_53"/>
</filter>
<clipPath id="clip0_120_53">
<rect width="33" height="33" fill="white" transform="translate(23 26)"/>
</clipPath>
</defs>
</svg>
